<svg width="33" height="31" viewBox="0 0 33 31" fill="none" xmlns="http://www.w3.org/2000/svg">
<path d="M21.7229 26.1216C21.7767 26.1306 21.8302 26.135 21.883 26.135C22.347 26.135 22.7566 25.7998 22.8355 25.3269L23.8023 19.5261C23.89 18.9995 23.5343 18.5013 23.0075 18.4135C22.4808 18.3255 21.9827 18.6815 21.895 19.2083L20.9282 25.009C20.8404 25.5357 21.1962 26.0339 21.7229 26.1216Z" fill="white"/>
<path d="M10.229 25.3269C10.3078 25.7998 10.7173 26.135 11.1815 26.135C11.2342 26.135 11.2877 26.1307 11.3416 26.1216C11.8683 26.0339 12.2241 25.5358 12.1363 25.0091L11.1695 19.2083C11.0817 18.6816 10.5837 18.3258 10.0569 18.4136C9.53017 18.5013 9.17439 18.9994 9.26218 19.5261L10.229 25.3269Z" fill="white"/>
<path d="M32.0332 10.666H28.6307L21.1866 1.36094C20.8531 0.944119 20.2447 0.876379 19.8277 1.20999C19.4108 1.54353 19.3432 2.15191 19.6768 2.56885L26.1545 10.666H6.8455L13.3233 2.56885C13.6568 2.15191 13.5892 1.54347 13.1723 1.20999C12.7553 0.876379 12.147 0.944055 11.8135 1.36094L4.36934 10.666H0.966797C0.432867 10.666 0 11.0989 0 11.6328V15.5C0 16.0339 0.432867 16.4668 0.966797 16.4668H2.17117L5.83804 29.3008C5.95656 29.7159 6.33594 30.002 6.76758 30.002H26.2324C26.6641 30.002 27.0434 29.7159 27.162 29.3008L30.8288 16.4668H32.0332C32.5671 16.4668 33 16.0339 33 15.5V11.6328C33 11.0989 32.5671 10.666 32.0332 10.666ZM25.5032 28.0684H7.4968L4.18211 16.4668H28.818L25.5032 28.0684ZM31.0664 14.5332C27.7545 14.5332 5.07117 14.5332 1.93359 14.5332V12.5996H31.0664V14.5332Z" fill="white"/>
<path d="M16.5 26.1348C17.0339 26.1348 17.4668 25.7019 17.4668 25.168V19.3672C17.4668 18.8333 17.0339 18.4004 16.5 18.4004C15.9661 18.4004 15.5332 18.8333 15.5332 19.3672V25.168C15.5332 25.702 15.9661 26.1348 16.5 26.1348Z" fill="white"/>
</svg>
