<svg width="44" height="44" viewBox="0 0 44 44" fill="none" xmlns="http://www.w3.org/2000/svg">
<circle cx="22" cy="22" r="22" fill="#019EB1" fill-opacity="0.45"/>
<path fill-rule="evenodd" clip-rule="evenodd" d="M30.5823 30.3739C31.2476 29.7086 31.2476 28.6299 30.5823 27.9646L25.1615 22.5439L30.5823 17.1231C31.2476 16.4578 31.2476 15.3792 30.5823 14.7139C29.9171 14.0486 28.8384 14.0486 28.1731 14.7139L22.7523 20.1347L17.3315 14.7138C16.6662 14.0486 15.5876 14.0486 14.9223 14.7138C14.257 15.3791 14.257 16.4578 14.9223 17.1231L20.3431 22.5439L14.32 28.567C13.6547 29.2322 13.6547 30.3109 14.32 30.9762C14.9853 31.6415 16.064 31.6415 16.7292 30.9762L22.7523 24.9531L28.1731 30.3739C28.8383 31.0392 29.917 31.0392 30.5823 30.3739Z" fill="white"/>
</svg>
