<svg width="27" height="31" viewBox="0 0 27 31" fill="none" xmlns="http://www.w3.org/2000/svg">
<path fill-rule="evenodd" clip-rule="evenodd" d="M23.3399 19.9871L26.4733 21.805C26.977 22.0971 27.1495 22.7441 26.8588 23.25C26.6638 23.5893 26.3099 23.7791 25.9461 23.7791C25.7676 23.7791 25.5865 23.7334 25.4207 23.6372L22.2868 21.8191L22.2577 24.9878C22.2523 25.5686 21.7819 26.0359 21.2052 26.0359L21.1952 26.0358C20.6138 26.0304 20.1468 25.5524 20.1523 24.9682L20.1911 20.7426C18.8563 22.4439 16.8867 23.6233 14.6389 23.9244L18.3339 26.0228C18.8401 26.3102 19.0185 26.9557 18.7324 27.4643C18.5389 27.8085 18.1822 28.0018 17.815 28.0018C17.6394 28.0018 17.4615 27.9577 17.2979 27.8647L14.5528 26.3059V29.9421C14.5528 30.5264 14.0815 31 13.5001 31C12.9187 31 12.4473 30.5264 12.4473 29.9421V26.3059L9.70227 27.8647C9.5386 27.9577 9.36061 28.0018 9.18515 28.0018C8.81795 28.0018 8.46127 27.8085 8.2677 27.4643C7.98163 26.9555 8.16004 26.3102 8.66621 26.0228L12.3611 23.9244C10.1132 23.6233 8.14353 22.4438 6.80869 20.7424L6.84661 24.9683C6.85195 25.5525 6.3848 26.0304 5.80339 26.0356L5.79371 26.0358C5.2168 26.0358 4.74642 25.5683 4.74123 24.9873L4.71273 21.8191L1.57929 23.6371C1.41351 23.7333 1.23244 23.779 1.05389 23.779C0.690056 23.779 0.336188 23.5893 0.141216 23.2499C-0.149487 22.7439 0.0230257 22.097 0.526527 21.8048L3.65997 19.987L0.944123 18.3779C0.443289 18.0813 0.276671 17.4327 0.572006 16.9295C0.867342 16.4262 1.51304 16.2589 2.01359 16.5555L5.61984 18.6924C5.22014 17.7067 5 16.6291 5 15.5C5 14.3717 5.21984 13.2947 5.61903 12.3096L2.01359 14.4447C1.84571 14.544 1.66169 14.5913 1.48005 14.5913C1.11944 14.5913 0.768382 14.4051 0.572006 14.0704C0.276812 13.567 0.443569 12.9184 0.944404 12.6218L3.66067 11.0131L0.526667 9.19488C0.0231659 8.90276 -0.149347 8.25577 0.141356 7.74982C0.432059 7.24388 1.07593 7.07039 1.57943 7.36264L4.71287 9.18063L4.74137 6.01266C4.74656 5.43153 5.21694 4.96424 5.79385 4.96424H5.80354C6.38494 4.96946 6.85209 5.44733 6.84675 6.03156L6.80883 10.2574C8.14367 8.55615 10.1133 7.37665 12.3611 7.07565L8.66621 4.97721C8.16004 4.68975 7.98163 4.04431 8.2677 3.53569C8.55391 3.02692 9.19582 2.84765 9.70227 3.13525L12.4473 4.69413V1.05787C12.4473 0.473644 12.9187 0 13.5001 0C14.0815 0 14.5528 0.473644 14.5528 1.05787V4.69413L17.2979 3.13511C17.804 2.84751 18.4464 3.02692 18.7324 3.53555C19.0185 4.04431 18.8401 4.68961 18.3339 4.97707L14.6387 7.07562C16.8866 7.37658 18.8563 8.5561 20.1912 10.2574L20.1533 6.03156C20.1479 5.44733 20.6151 4.96946 21.1965 4.96424C21.7765 4.9562 22.2534 5.42829 22.2586 6.01252L22.2871 9.18063L25.4206 7.36264C25.9241 7.07039 26.5679 7.24374 26.8586 7.74982C27.1494 8.25577 26.9768 8.90276 26.4733 9.19488L23.3392 11.0131L26.055 12.6215C26.5559 12.9183 26.7226 13.5668 26.4274 14.0701C26.2311 14.4048 25.88 14.591 25.5195 14.591C25.3379 14.591 25.1537 14.5439 24.986 14.4445L21.3808 12.3093C21.7801 13.2945 22 14.3716 22 15.5C22 16.6289 21.7799 17.7065 21.3803 18.692L24.9859 16.5557C25.4868 16.2591 26.1321 16.4265 26.4274 16.9296C26.7228 17.4329 26.5562 18.0814 26.0553 18.3782L23.3399 19.9871Z" fill="#043D5C"/>
</svg>
