<svg width="26" height="25" viewBox="0 0 26 25" fill="none" xmlns="http://www.w3.org/2000/svg">
<path d="M17.115 21.1904C17.1574 21.1978 17.1996 21.2014 17.2412 21.2014C17.6068 21.2014 17.9295 20.9271 17.9916 20.5402L18.7533 15.7941C18.8225 15.3632 18.5422 14.9557 18.1272 14.8838C17.7122 14.8118 17.3198 15.1031 17.2506 15.534L16.4889 20.2801C16.4197 20.7111 16.7 21.1187 17.115 21.1904Z" fill="black"/>
<path d="M8.05919 20.5402C8.1213 20.9271 8.44396 21.2014 8.80963 21.2014C8.85122 21.2014 8.89337 21.1978 8.93578 21.1904C9.35076 21.1186 9.63107 20.7111 9.56191 20.2801L8.80019 15.534C8.73103 15.1031 8.33864 14.8121 7.9236 14.8838C7.50862 14.9557 7.22831 15.3632 7.29747 15.7941L8.05919 20.5402Z" fill="black"/>
<path d="M25.2383 8.54494H22.5575L16.6925 0.931682C16.4297 0.590648 15.9504 0.535224 15.6218 0.808178C15.2933 1.08108 15.2401 1.57884 15.5029 1.91998L20.6066 8.54494H5.39343L10.4971 1.91998C10.7599 1.57884 10.7067 1.08103 10.3782 0.808178C10.0497 0.535224 9.57034 0.590596 9.30759 0.931682L3.44251 8.54494H0.761719C0.341047 8.54494 0 8.89911 0 9.33596V12.5C0 12.9369 0.341047 13.291 0.761719 13.291H1.71062L4.59966 23.7916C4.69305 24.1312 4.99195 24.3653 5.33203 24.3653H20.668C21.0081 24.3653 21.3069 24.1312 21.4004 23.7916L24.2894 13.291H25.2383C25.659 13.291 26 12.9369 26 12.5V9.33596C26 8.89911 25.659 8.54494 25.2383 8.54494ZM20.0934 22.7832H5.90657L3.29499 13.291H22.7051L20.0934 22.7832ZM24.4766 11.709C21.8672 11.709 3.99547 11.709 1.52344 11.709V10.127H24.4766V11.709Z" fill="black"/>
<path d="M13 21.2012C13.4207 21.2012 13.7617 20.847 13.7617 20.4102V15.6641C13.7617 15.2272 13.4207 14.8731 13 14.8731C12.5793 14.8731 12.2383 15.2272 12.2383 15.6641V20.4102C12.2383 20.8471 12.5793 21.2012 13 21.2012Z" fill="black"/>
</svg>
