<svg width="125" height="32" viewBox="0 0 125 32" fill="none" xmlns="http://www.w3.org/2000/svg">
<path d="M12.7119 29.2021C12.7119 27.3467 12.848 25.1943 13.1201 22.7451C13.4046 20.2835 13.751 17.958 14.1592 15.7686C14.555 13.5667 14.889 11.2474 15.1611 8.81055C15.4456 6.36133 15.5879 4.21517 15.5879 2.37207C15.8477 2.1123 15.9775 1.82161 15.9775 1.5C15.9775 1.21549 15.86 0.974284 15.625 0.776367C15.39 0.566081 15.1178 0.460938 14.8086 0.460938C14.2767 0.460938 13.9118 0.584635 13.7139 0.832031C13.5283 1.06706 13.4355 1.47526 13.4355 2.05664C13.4355 3.875 13.3366 5.82324 13.1387 7.90137C12.9531 9.97949 12.6624 12.4658 12.2666 15.3604C11.8708 18.292 11.6234 20.3206 11.5244 21.4463C11.2894 20.0485 10.943 18.4219 10.4854 16.5664C9.91634 14.2533 9.4834 12.2617 9.18652 10.5918C8.90202 8.92188 8.75977 7.36947 8.75977 5.93457V5.35938C8.75977 4.61719 8.30827 4.24609 7.40527 4.24609C7.15788 4.24609 6.92904 4.37598 6.71875 4.63574C6.50846 4.88314 6.40332 5.1429 6.40332 5.41504V6.13867C6.40332 6.94271 6.34147 8.01888 6.21777 9.36719C6.10645 10.666 5.97656 11.9463 5.82812 13.208C5.69206 14.4574 5.53125 15.8737 5.3457 17.457L4.95605 20.667C4.94368 20.6299 4.78906 18.929 4.49219 15.5645L4.43652 14.9521C4.09017 11.2041 3.68197 8.0127 3.21191 5.37793C2.72949 2.74316 2.18522 1.42578 1.5791 1.42578C1.01009 1.42578 0.570964 1.72884 0.261719 2.33496C0.447266 2.78027 0.824544 4.92025 1.39355 8.75488C1.97493 12.5895 2.52539 16.5107 3.04492 20.5186C3.56445 24.514 3.82422 26.889 3.82422 27.6436C3.82422 29.5732 4.28809 30.5381 5.21582 30.5381C5.48796 30.5381 5.73535 30.4268 5.95801 30.2041C6.19303 29.9938 6.31055 29.7526 6.31055 29.4805C6.31055 27.7363 6.39095 25.9056 6.55176 23.9883C6.68783 22.1699 6.83008 20.599 6.97852 19.2754C7.13932 17.9395 7.39909 15.9912 7.75781 13.4307L8.12891 15.917C8.35156 17.4632 8.57422 18.9352 8.79688 20.333C9.46484 24.4893 10.0648 27.3714 10.5967 28.9795C10.9554 30.0062 11.2832 30.5195 11.5801 30.5195C11.9388 30.5195 12.2171 30.3958 12.415 30.1484C12.613 29.9134 12.7119 29.598 12.7119 29.2021ZM20.709 1.98242C20.709 3.44206 20.7152 4.56152 20.7275 5.34082C20.7646 10.165 20.8574 14.1667 21.0059 17.3457C21.1172 19.8444 21.2471 22.0153 21.3955 23.8584C21.5439 25.6891 21.7419 27.124 21.9893 28.1631C22.249 29.3258 22.5459 29.9072 22.8799 29.9072C23.1149 29.9072 23.3066 29.8083 23.4551 29.6104C23.6159 29.4001 23.6963 29.165 23.6963 28.9053C23.6963 27.5322 23.5911 25.3737 23.3809 22.4297C23.1706 19.4857 23.0654 17.3519 23.0654 16.0283C23.5107 15.8304 24.2591 15.7314 25.3105 15.7314C25.4961 15.7314 25.9167 15.7933 26.5723 15.917C26.7949 20.0114 26.9062 24.4769 26.9062 29.3135C26.9062 29.6846 26.9867 29.9876 27.1475 30.2227C27.3083 30.4577 27.5495 30.5752 27.8711 30.5752C28.1803 30.5752 28.4401 30.4329 28.6504 30.1484C28.873 29.8639 28.9844 29.5485 28.9844 29.2021C28.9844 26.2952 28.8669 22.1204 28.6318 16.6777C28.3844 10.9629 28.2607 6.78809 28.2607 4.15332C28.2607 3.72038 28.2546 3.43587 28.2422 3.2998C28.2298 3.05241 28.1865 2.78646 28.1123 2.50195C28.0505 2.21745 27.9639 2.00098 27.8525 1.85254C27.7165 1.67936 27.5186 1.53711 27.2588 1.42578C27.0114 1.30208 26.7269 1.24023 26.4053 1.24023V2.24219C26.4053 4.02344 26.43 6.15104 26.4795 8.625C26.529 11.1113 26.5537 13.14 26.5537 14.7109C26.0094 14.7357 25.391 14.779 24.6982 14.8408C24.0674 14.915 23.4551 14.9645 22.8613 14.9893C22.8118 14.7295 22.7871 14.4017 22.7871 14.0059C22.7871 13.7337 22.7933 13.4925 22.8057 13.2822C22.818 13.0719 22.8242 12.8369 22.8242 12.5771C22.8242 11.5999 22.7809 10.2949 22.6943 8.66211C22.6077 7.05404 22.5645 5.75521 22.5645 4.76562C22.5645 3.71419 22.6077 2.76172 22.6943 1.9082C22.583 1.75977 22.3851 1.6237 22.1006 1.5C21.8285 1.36393 21.5811 1.2959 21.3584 1.2959C20.9255 1.2959 20.709 1.52474 20.709 1.98242ZM41.7314 28.9795C41.7314 28.0889 41.2057 27.6436 40.1543 27.6436C39.8945 27.6436 39.6348 27.6621 39.375 27.6992V26.2334C39.375 23.6605 39.2204 19.9557 38.9111 15.1191C38.6019 10.2826 38.4473 6.5778 38.4473 4.00488C38.4473 3.70801 38.5029 3.50391 38.6143 3.39258C38.7256 3.28125 38.9111 3.22559 39.1709 3.22559H39.4678C39.5667 3.23796 39.6904 3.24414 39.8389 3.24414C40.0986 3.24414 40.3089 3.14518 40.4697 2.94727C40.6429 2.73698 40.7295 2.49577 40.7295 2.22363C40.7295 1.93913 40.6182 1.69792 40.3955 1.5C40.1729 1.28971 39.9131 1.18457 39.6162 1.18457C38.8493 1.18457 37.9525 1.27734 36.9258 1.46289C36.332 1.57422 35.8496 1.7474 35.4785 1.98242C35.1074 2.20508 34.9219 2.46484 34.9219 2.76172C34.9219 3.36784 35.2188 3.6709 35.8125 3.6709C36.0723 3.6709 36.3691 3.61523 36.7031 3.50391C36.765 4.15951 36.7959 4.86458 36.7959 5.61914L36.7588 7.54883L36.7217 9.49707C36.7217 11.5505 36.8392 14.4759 37.0742 18.2734C37.3092 22.0833 37.4268 25.015 37.4268 27.0684C37.4268 27.4023 37.3835 27.6374 37.2969 27.7734C37.2103 27.8971 37.068 27.959 36.8701 27.959L36.5176 27.9219C36.3939 27.9095 36.2454 27.9033 36.0723 27.9033C35.3053 27.9033 34.9219 28.2064 34.9219 28.8125C34.9219 29.5671 36.0166 29.9443 38.2061 29.9443C38.6514 29.9443 39.1771 29.9258 39.7832 29.8887L40.7852 29.8516L41.7314 29.2021V28.9795ZM50.3594 6.06445C50.3594 5.5944 50.4336 5.11198 50.582 4.61719C50.7305 4.09766 50.9779 3.64616 51.3242 3.2627C51.6829 2.87923 52.085 2.66276 52.5303 2.61328C52.889 2.86068 53.3838 2.98438 54.0146 2.98438L54.6641 2.16797C54.4909 1.77214 54.1878 1.44434 53.7549 1.18457C53.3219 0.924805 52.8766 0.794922 52.4189 0.794922C51.5036 0.794922 50.7243 1.0918 50.0811 1.68555C49.4378 2.25456 48.9616 2.94727 48.6523 3.76367C48.3431 4.56771 48.1885 5.42741 48.1885 6.34277C48.1885 7.48079 48.374 8.65592 48.7451 9.86816C49.0173 10.7712 49.3389 11.6309 49.71 12.4473C50.0811 13.2513 50.5697 14.2409 51.1758 15.416L51.7139 16.4736C52.2952 17.624 52.7591 18.7992 53.1055 19.999C53.4518 21.1989 53.625 22.3369 53.625 23.4131C53.625 23.8708 53.5632 24.4027 53.4395 25.0088C53.3281 25.6149 53.1611 26.2272 52.9385 26.8457C52.7035 27.5137 52.3818 28.0579 51.9736 28.4785C51.5778 28.8991 51.1449 29.1094 50.6748 29.1094C50.4769 29.1094 50.1553 29.0104 49.71 28.8125C49.2523 28.627 48.875 28.5342 48.5781 28.5342C48.306 28.5342 48.0957 28.6331 47.9473 28.8311C47.7988 29.0166 47.7246 29.2578 47.7246 29.5547C47.7246 29.8763 47.9287 30.1361 48.3369 30.334C48.9801 30.668 49.7594 30.835 50.6748 30.835C51.5036 30.835 52.2643 30.6123 52.957 30.167C53.6497 29.7217 54.2064 29.1217 54.627 28.3672C55.0228 27.6497 55.3258 26.8828 55.5361 26.0664C55.7588 25.25 55.8701 24.446 55.8701 23.6543C55.8701 22.5163 55.7402 21.3783 55.4805 20.2402C55.2207 19.0898 54.8743 18.0632 54.4414 17.1602C54.0456 16.319 53.2539 14.7295 52.0664 12.3916L51.7881 11.835C51.3551 10.9814 51.0088 10.0537 50.749 9.05176C50.4893 8.03743 50.3594 7.04167 50.3594 6.06445ZM77.8018 26.9014C77.8018 22.6462 77.7523 19.3434 77.6533 16.9932V16.8262C77.6657 16.7891 77.6719 16.6963 77.6719 16.5479C77.6719 16.3747 77.6657 16.2201 77.6533 16.084L77.6162 15.6201C77.6162 13.9626 77.5544 11.6865 77.4307 8.79199C77.2946 5.60059 77.2266 3.31836 77.2266 1.94531C77.2266 1.64844 77.109 1.39486 76.874 1.18457C76.6514 0.961914 76.3854 0.850586 76.0762 0.850586C75.8164 0.850586 75.5938 0.924805 75.4082 1.07324C75.235 1.22168 75.1484 1.40723 75.1484 1.62988C75.1484 4.51204 75.2783 8.8291 75.5381 14.5811C75.7855 20.4938 75.9092 24.8171 75.9092 27.5508C75.9092 27.7363 75.8721 28.0085 75.7979 28.3672C75.7113 28.7135 75.668 28.998 75.668 29.2207C75.668 29.5423 75.7979 29.8206 76.0576 30.0557C76.3174 30.3031 76.6143 30.4268 76.9482 30.4268C77.4059 30.4268 77.7646 30.2721 78.0244 29.9629C78.2471 29.9629 78.4512 29.9691 78.6367 29.9814L79.249 30.0186C79.5459 30.0186 79.7871 29.9938 79.9727 29.9443L80.1582 30C80.2943 30.0495 80.4242 30.0742 80.5479 30.0742C80.82 30.0742 81.0488 29.9691 81.2344 29.7588C81.4199 29.5361 81.5127 29.2826 81.5127 28.998C81.5127 28.6146 81.2406 28.2373 80.6963 27.8662H77.8018V26.9014ZM90.4561 0.59082C89.9736 0.59082 89.5221 0.695964 89.1016 0.90625C88.6934 1.12891 88.3532 1.4196 88.0811 1.77832C87.8089 2.12467 87.5677 2.56999 87.3574 3.11426C86.9616 4.16569 86.7018 5.35938 86.5781 6.69531C86.4544 7.88281 86.3926 9.23112 86.3926 10.7402L86.4297 13.1338C86.4421 13.8018 86.4482 14.4821 86.4482 15.1748C86.4482 15.5706 86.4606 16.2386 86.4854 17.1787C86.5225 17.9951 86.5843 18.9352 86.6709 19.999C86.7699 21.0505 86.8936 22.0215 87.042 22.9121C87.2028 23.9264 87.4255 24.9408 87.71 25.9551C87.9945 26.9694 88.3161 27.8291 88.6748 28.5342C89.0583 29.3011 89.5345 29.9134 90.1035 30.3711C90.6849 30.8288 91.3096 31.0576 91.9775 31.0576C92.6826 31.0576 93.3197 30.7607 93.8887 30.167C94.4453 29.6104 94.8721 28.9548 95.1689 28.2002C95.4658 27.4456 95.6143 26.7158 95.6143 26.0107C95.6143 25.0212 95.6947 24.1862 95.8555 23.5059V23.3389C95.8555 22.807 95.9111 22.0153 96.0225 20.9639C96.1338 19.9001 96.1895 19.0898 96.1895 18.5332V16.3438C96.1895 14.8346 96.1462 13.1462 96.0596 11.2783C96.0225 10.3506 95.9482 9.50944 95.8369 8.75488C95.7256 8.00033 95.571 7.13444 95.373 6.15723C95.1999 5.34082 94.971 4.61719 94.6865 3.98633C94.402 3.35547 94.0557 2.75553 93.6475 2.18652C93.264 1.66699 92.8001 1.27116 92.2559 0.999023C91.7116 0.726888 91.1117 0.59082 90.4561 0.59082ZM90.6416 2.59473C91.0869 2.59473 91.4951 2.7679 91.8662 3.11426C92.2497 3.46061 92.5713 3.96159 92.8311 4.61719C93.3753 6.01497 93.7526 7.5612 93.9629 9.25586C94.1979 11.3216 94.3464 13.0286 94.4082 14.377C94.4453 15.5768 94.4639 16.7458 94.4639 17.8838C94.4639 18.6878 94.4391 19.529 94.3896 20.4072C94.3031 21.8421 94.1855 23.1842 94.0371 24.4336C93.8887 25.6706 93.6598 26.7096 93.3506 27.5508C92.9919 28.5033 92.5589 28.9795 92.0518 28.9795C91.4704 28.9795 90.9447 28.5404 90.4746 27.6621C90.0293 26.8457 89.6644 25.8438 89.3799 24.6562C89.1077 23.4688 88.8665 22.0648 88.6562 20.4443C88.3223 17.958 88.1553 15.8737 88.1553 14.1914V14.0244C88.1553 13.8883 88.1676 13.2266 88.1924 12.0391L88.2109 11.334C88.2357 10.2949 88.3285 9.01465 88.4893 7.49316C88.6006 6.34277 88.848 5.20475 89.2314 4.0791C89.5778 3.08952 90.0479 2.59473 90.6416 2.59473ZM102.665 0.999023C102.108 0.999023 101.756 1.24642 101.607 1.74121C101.991 3.6709 102.764 8.2168 103.927 15.3789C105.102 22.6647 106.005 27.6126 106.636 30.2227C106.871 30.4948 107.168 30.6309 107.526 30.6309C107.65 30.6309 107.799 30.3402 107.972 29.7588C108.256 28.7568 108.615 26.7777 109.048 23.8213C109.308 22.0524 109.691 19.1146 110.198 15.0078C110.594 11.8288 110.922 8.97754 111.182 6.4541C111.503 3.32454 111.689 1.61133 111.738 1.31445L110.94 0.887695C110.409 0.887695 109.945 1.14128 109.549 1.64844C109.549 3.72656 109.438 5.93457 109.215 8.27246C108.992 10.6104 108.64 13.4678 108.157 16.8447C107.761 19.5413 107.452 21.8298 107.229 23.71L106.172 16.9746C105.492 12.571 104.848 8.86621 104.242 5.86035C103.599 2.61947 103.073 0.999023 102.665 0.999023ZM124.151 28.9424C124.151 28.2744 123.428 27.9404 121.98 27.9404L119.865 28.0518V16.3252C120.014 16.1396 120.273 16.0469 120.645 16.0469C120.842 16.0469 121.016 16.0531 121.164 16.0654C121.3 16.0778 121.442 16.084 121.591 16.084C121.875 16.084 122.11 15.9727 122.296 15.75C122.494 15.515 122.593 15.2367 122.593 14.915C122.593 14.6305 122.481 14.3831 122.259 14.1729C122.036 13.9626 121.776 13.8574 121.479 13.8574C121.146 13.8574 120.737 13.9255 120.255 14.0615C119.871 14.1481 119.686 14.1914 119.698 14.1914C119.698 13.8574 119.729 13.1462 119.791 12.0576C119.853 10.9814 119.884 10.2454 119.884 9.84961C119.884 9.24349 119.834 8.19824 119.735 6.71387C119.636 5.22949 119.587 4.18424 119.587 3.57812C119.649 3.56576 119.785 3.55957 119.995 3.55957C120.205 3.55957 120.391 3.56576 120.552 3.57812C120.713 3.59049 120.892 3.59668 121.09 3.59668C122.24 3.59668 122.815 3.2194 122.815 2.46484C122.815 2.11849 122.624 1.8278 122.24 1.59277C121.869 1.34538 121.479 1.22168 121.071 1.22168C120.762 1.22168 120.292 1.27734 119.661 1.38867C119.03 1.5 118.56 1.55566 118.251 1.55566C118.041 1.76595 117.725 2.21126 117.305 2.8916V3.02148C117.305 3.42969 117.391 4.0791 117.564 4.96973C117.738 5.86035 117.824 6.50358 117.824 6.89941V28.9795C117.824 29.5485 118.035 29.9072 118.455 30.0557C118.653 30.1299 118.832 30.1732 118.993 30.1855C119.166 30.2103 119.408 30.2227 119.717 30.2227H120.904C121.312 30.2227 121.727 30.2103 122.147 30.1855C122.519 30.1484 122.902 30.0371 123.298 29.8516C123.706 29.6536 123.991 29.3939 124.151 29.0723V28.9424Z" fill="white"/>
</svg>
